<svg xmlns="http://www.w3.org/2000/svg" width="24" height="24" fill="none" viewBox="0 0 24 24"><path fill="#000" d="M17.378 2H5.622C4.725 2 4 2.688 4 3.538v16.924C4 21.312 4.725 22 5.622 22h11.756c.897 0 1.622-.687 1.622-1.538V3.538C19 2.688 18.275 2 17.378 2m-.608 13.077v3.846c0 .64-.542 1.154-1.216 1.154s-1.216-.515-1.216-1.154v-3.846c0-.64.542-1.154 1.216-1.154s1.216.515 1.216 1.154m0-3.846c0 .64-.542 1.154-1.216 1.154s-1.216-.515-1.216-1.154c0-.64.542-1.154 1.216-1.154s1.216.514 1.216 1.154m-4.054 7.692c0 .64-.542 1.154-1.216 1.154s-1.216-.515-1.216-1.154c0-.64.542-1.154 1.216-1.154s1.216.515 1.216 1.154m0-3.846c0 .64-.542 1.154-1.216 1.154s-1.216-.515-1.216-1.154c0-.64.542-1.154 1.216-1.154s1.216.515 1.216 1.154m0-3.846c0 .64-.542 1.154-1.216 1.154s-1.216-.515-1.216-1.154c0-.64.542-1.154 1.216-1.154s1.216.514 1.216 1.154m-4.054 7.692c0 .64-.542 1.154-1.216 1.154s-1.216-.515-1.216-1.154c0-.64.542-1.154 1.216-1.154s1.216.515 1.216 1.154m0-3.846c0 .64-.542 1.154-1.216 1.154s-1.216-.515-1.216-1.154c0-.64.542-1.154 1.216-1.154s1.216.515 1.216 1.154m0-3.846c0 .64-.542 1.154-1.216 1.154S6.23 11.87 6.23 11.23s.542-1.154 1.216-1.154 1.216.514 1.216 1.154M6.23 7.385V5.077c0-.423.365-.77.81-.77h8.92c.445 0 .81.347.81.77v2.308c0 .423-.365.769-.81.769H7.04c-.445 0-.81-.346-.81-.77"/></svg>